<svg width="900" height="520" viewBox="0 0 900 520" fill="none" xmlns="http://www.w3.org/2000/svg" role="img" aria-labelledby="title desc">
  <title id="title">ICT operations suite</title>
  <desc id="desc">A stylized server rack, workstation, and analytics console using the system palette.</desc>
  <rect width="900" height="520" rx="28" fill="#0B1320"/>
  <rect x="62" y="70" width="260" height="360" rx="24" fill="#F8FAFC"/>
  <rect x="92" y="106" width="200" height="52" rx="14" fill="#14B8A6"/>
  <rect x="92" y="182" width="200" height="52" rx="14" fill="#0B1320"/>
  <rect x="112" y="201" width="54" height="14" rx="7" fill="#F8FAFC"/>
  <circle cx="256" cy="208" r="12" fill="#F59E0B"/>
  <rect x="92" y="258" width="200" height="52" rx="14" fill="#0B1320"/>
  <rect x="112" y="277" width="82" height="14" rx="7" fill="#F8FAFC"/>
  <circle cx="256" cy="284" r="12" fill="#14B8A6"/>
  <rect x="92" y="334" width="200" height="52" rx="14" fill="#0B1320"/>
  <rect x="112" y="353" width="64" height="14" rx="7" fill="#F8FAFC"/>
  <circle cx="256" cy="360" r="12" fill="#F59E0B"/>
  <rect x="380" y="110" width="430" height="255" rx="26" fill="#F8FAFC"/>
  <rect x="414" y="146" width="155" height="48" rx="16" fill="#0B1320"/>
  <rect x="594" y="146" width="176" height="48" rx="16" fill="#14B8A6"/>
  <rect x="414" y="226" width="356" height="28" rx="14" fill="#0B1320"/>
  <rect x="414" y="278" width="120" height="28" rx="14" fill="#F59E0B"/>
  <rect x="554" y="278" width="96" height="28" rx="14" fill="#14B8A6"/>
  <rect x="670" y="278" width="100" height="28" rx="14" fill="#0B1320"/>
  <path d="M457 425H734" stroke="#14B8A6" stroke-width="22" stroke-linecap="round"/>
  <path d="M500 425H734" stroke="#F59E0B" stroke-width="22" stroke-linecap="round"/>
  <circle cx="380" cy="425" r="35" fill="#F8FAFC"/>
  <circle cx="380" cy="425" r="18" fill="#14B8A6"/>
</svg>
