<svg width="980" height="560" viewBox="0 0 980 560" fill="none" xmlns="http://www.w3.org/2000/svg" role="img" aria-labelledby="title desc">
  <title id="title">Customer ICT workbench</title>
  <desc id="desc">A stylized customer portal workbench with hardware, hosting, and billing cards.</desc>
  <rect width="980" height="560" rx="28" fill="#0B1320"/>
  <rect x="54" y="62" width="322" height="418" rx="22" fill="#F8FAFC"/>
  <rect x="86" y="98" width="258" height="62" rx="16" fill="#14B8A6"/>
  <rect x="86" y="188" width="114" height="114" rx="20" fill="#0B1320"/>
  <rect x="228" y="188" width="116" height="114" rx="20" fill="#F59E0B"/>
  <rect x="86" y="330" width="258" height="28" rx="14" fill="#0B1320"/>
  <rect x="86" y="382" width="182" height="28" rx="14" fill="#14B8A6"/>
  <rect x="444" y="82" width="444" height="276" rx="24" fill="#F8FAFC"/>
  <rect x="486" y="122" width="160" height="34" rx="17" fill="#0B1320"/>
  <rect x="486" y="188" width="330" height="34" rx="17" fill="#14B8A6"/>
  <rect x="486" y="246" width="238" height="34" rx="17" fill="#F59E0B"/>
  <rect x="486" y="304" width="296" height="34" rx="17" fill="#0B1320"/>
  <path d="M476 438H836" stroke="#14B8A6" stroke-width="26" stroke-linecap="round"/>
  <path d="M476 438H694" stroke="#F59E0B" stroke-width="26" stroke-linecap="round"/>
  <circle cx="852" cy="438" r="38" fill="#F8FAFC"/>
  <circle cx="852" cy="438" r="17" fill="#14B8A6"/>
</svg>
